# xmcd CD database file
#
# Track frame offsets:
#	150
#	13032
#	25568
#	38555
#	51255
#	62712
#	74488
#	85848
#	97592
#	110396
#	122322
#	135196
#	147484
#	160208
#	172698
#	185329
#	197667
#	209938
#	223256
#	235317
#
# Disc length: 3309 seconds
#
# Revision: 3
# Processed by: cddbd v1.5.2PL0 Copyright (c) Steve Scherf et al.
# Submitted via: CDex 1.70beta2
#
DISCID=0f0ceb14
DTITLE=Ti-Blanc Richard - Du Violon à La Manière De Ti-Blanc
DYEAR=1900
DGENRE=Country
TTITLE0=Le Reel De L'Oiseau Bleu
TTITLE1=Le Reel De La Fleur De Lys
TTITLE2=Le Reel Des Quatre Coins De St-Malo
TTITLE3=Le Reel Du Mardi Gras
TTITLE4=Le Reel Du Survenant
TTITLE5=Le Reel De La Fête Des Mères
TTITLE6=La Valse Des Fleurs
TTITLE7=Le Reel Du Moulin Vert
TTITLE8=Le Reel Du Snack-Bar
TTITLE9=Le Reel De Chicoutimi
TTITLE10=Le Reel Du Saguenay
TTITLE11=Le Reel Des Deux Copains
TTITLE12=Le Reel De L'Exposition
TTITLE13=Le Reel Des Carabins
TTITLE14=Le Reel Des Quatre As
TTITLE15=Le Reel De Coaticook
TTITLE16=Le Reel Du Pendu
TTITLE17=La Valse Des Yeux Bleus
TTITLE18=La Polka Des Gais-Lurons
TTITLE19=La Tarentelle Cécilienne
EXTD=
EXTT0=
EXTT1=
EXTT2=
EXTT3=
EXTT4=
EXTT5=
EXTT6=
EXTT7=
EXTT8=
EXTT9=
EXTT10=
EXTT11=
EXTT12=
EXTT13=
EXTT14=
EXTT15=
EXTT16=
EXTT17=
EXTT18=
EXTT19=
PLAYORDER=
